<?xml version="1.0" encoding="utf-8"?>
<!-- Generator: Adobe Illustrator 25.4.1, SVG Export Plug-In . SVG Version: 6.00 Build 0)  -->
<svg version="1.1" id="Calque_1" xmlns="http://www.w3.org/2000/svg" xmlns:xlink="http://www.w3.org/1999/xlink" x="0px" y="0px"
	 viewBox="0 0 79.2 88.6" style="enable-background:new 0 0 79.2 88.6;" xml:space="preserve">
<style type="text/css">
	.st0{fill:none;stroke:#5BB286;stroke-width:3;stroke-miterlimit:10;}
	.st1{fill:#FDFDFB;}
	.st2{fill:#5BB286;}
	.st3{fill:#5BB286;stroke:#000000;stroke-width:2;stroke-miterlimit:10;}
	.st4{fill:#FDFDFB;stroke:#000000;stroke-width:2;stroke-miterlimit:10;}
	.st5{fill:none;stroke:#000000;stroke-width:2;stroke-miterlimit:10;}
</style>
<circle class="st0" cx="43.9" cy="48.9" r="32.5"/>
<g>
	<path class="st1" d="M33.9,17.6c0-2.5,16.5-11.2,24.8-16.7l5.1,23.7L41.2,46.4C41.2,46.4,33.9,20.1,33.9,17.6z"/>
	<g>
		<path d="M34.7,17.6c0-0.1,0.6-0.8,0.8-1c0.6-0.6,1.3-1.1,2.1-1.7c2.1-1.5,4.3-2.9,6.6-4.3c5-3,10.1-5.9,14.9-9.2
			c-0.4,0-0.8-0.2-1.1-0.3c1.5,6.9,3,13.8,4.5,20.7c0.2,1,0.4,2,0.6,3c0.1-0.2,0.1-0.5,0.2-0.7c-6.6,6.2-13.2,12.6-19.8,19
			c-0.9,0.9-1.9,1.8-2.8,2.8c0.4,0.1,0.8,0.2,1.3,0.3c-2.2-8-4.4-15.9-6.3-24C35.3,20.7,34.7,19,34.7,17.6c0-1-1.5-1-1.5,0
			c0,1.3,0.4,2.6,0.7,3.8c0.5,2.4,1.1,4.7,1.7,7.1c1.3,4.9,2.6,9.8,3.9,14.7c0.3,1.1,0.6,2.2,0.9,3.3c0.2,0.6,0.8,0.7,1.3,0.3
			c5.9-5.7,11.8-11.4,17.6-17.1c1.3-1.3,2.6-2.6,4-3.8c0.5-0.5,1.2-0.9,1.1-1.8c-0.2-1.3-0.6-2.7-0.9-4c-0.5-2.5-1.1-4.9-1.6-7.4
			C61,8.6,60.1,4.6,59.3,0.5c-0.1-0.5-0.7-0.7-1.1-0.4c-5.2,3.5-10.7,6.6-16,9.8c-2.2,1.4-4.5,2.8-6.5,4.4c-1,0.8-2.5,1.8-2.6,3.2
			C33.1,18.6,34.6,18.6,34.7,17.6z"/>
	</g>
</g>
<g>
	<polyline class="st2" points="58.7,0.9 51.1,19.4 63.8,24.5 	"/>
	<g>
		<path d="M58,0.8c-2.5,6.2-5.1,12.4-7.6,18.6c-0.1,0.3,0,0.5,0.3,0.6c4.2,1.7,8.5,3.4,12.7,5.1c0.6,0.2,1.7-0.6,0.8-1
			c-4.2-1.7-8.5-3.4-12.7-5.1c0.1,0.2,0.2,0.4,0.3,0.6c2.5-6.2,5.1-12.4,7.6-18.6C59.7,0.2,58.2,0.2,58,0.8L58,0.8z"/>
	</g>
</g>
<g>
	<path class="st2" d="M41.2,46.4L51,19.5c0,0-12.7-1.5-17.1-1.8"/>
	<g>
		<path d="M41.9,46.4c2.9-7.9,5.7-15.7,8.6-23.6c0.4-1.1,0.8-2.2,1.2-3.3c0.1-0.3-0.1-0.6-0.4-0.6c-5.7-0.7-11.4-1.3-17.1-1.8
			c-0.7-0.1-1.5,1-0.5,1.1c5.7,0.5,11.4,1.2,17.1,1.8c-0.1-0.2-0.3-0.4-0.4-0.6c-2.9,7.9-5.7,15.7-8.6,23.6
			c-0.4,1.1-0.8,2.2-1.2,3.3C40.2,47.1,41.7,47.1,41.9,46.4L41.9,46.4z"/>
	</g>
</g>
<path class="st3" d="M46.6,79.8c2.7,2.1,10.9,7.2,13.4,7.7s17-13.3,18.1-14.6s-12.5-17-12.5-17l-15-1.2C50.6,54.7,44,77.7,46.6,79.8
	z"/>
<polyline class="st4" points="50.6,54.7 58.2,65.1 46.2,79.4 "/>
<polyline class="st4" points="78.1,72.9 58.2,65.1 65.6,55.9 "/>
<line class="st5" x1="60" y1="87.5" x2="58.2" y2="65.1"/>
<polygon class="st4" points="4.2,61 28.7,51.5 29.4,73.4 18.9,82.9 1.1,79.7 "/>
<polyline class="st3" points="1.1,79.7 15.3,69 18.9,82.9 "/>
<polyline class="st3" points="28.7,51.5 15.3,69 29.4,73.4 "/>
<line class="st5" x1="4.2" y1="61" x2="15.3" y2="69"/>
</svg>
