<?xml version="1.0" encoding="utf-8"?>
<!-- Generator: Adobe Illustrator 25.4.1, SVG Export Plug-In . SVG Version: 6.00 Build 0)  -->
<svg version="1.1" id="Calque_1" xmlns="http://www.w3.org/2000/svg" xmlns:xlink="http://www.w3.org/1999/xlink" x="0px" y="0px"
	 viewBox="0 0 262.2 318.2" style="enable-background:new 0 0 262.2 318.2;" xml:space="preserve">
<style type="text/css">
	.st0{fill:#B2B2B2;}
	.st1{fill:#FFFFFF;}
	.st2{fill:none;stroke:#000000;stroke-miterlimit:10;}
</style>
<g id="Calque_2_00000124124846022605102830000013654814718432442011_">
	<path class="st0" d="M189.7,281.7c0,0-148.4,47.4-147.1,34.1C48.4,204.6-73.2,75,70.3,28.5c0,0,125.2-41.2,128.2-24.6
		C210.7,69.7,257,180.5,257,180.5C272.1,225.7,255.5,259.3,189.7,281.7z"/>
</g>
<g id="Calque_1_00000176019301019863276900000014172236511013697172_">
	<g id="XMLID_00000121262824171371487610000017453813604329006254_">
		<g>
			<path d="M131.8,121.6l6.7,12.5c0,0,15.3,12.8,16.9,15.8c3.2,6,9.5,25.2,15.5,32.7s30.7,11.5,31.5,20.2c0.6,8,12.4,17.4,14.5,19.1
				c-2.9,31.6-11,83.1-103.9,70.3c-99.7-13.7-97.5-74.2-97.5-74.2l3.2-25.2c0,0,13.1-7,20.2-7c7.1,0.1,8.6-7.6,16-7.8
				c7.4-0.2,26.5-47.7,41.9-49.5"/>
			<path class="st1" d="M209.5,90.9c25.3,13.8,21.3,31.2,21.3,31.2s-8.3,60.7-12.3,85c-0.7,3.9-1,8.9-1.5,14.7
				c-2.1-1.6-13.9-11-14.6-19c-0.8-8.7-25.5-12.8-31.5-20.2s-12.3-26.8-15.5-32.7c-1.6-3-16.9-15.8-16.9-15.8l-6.7-6.1
				c-1.6-2.9-24.7-0.9-35,0.3c-15.4,1.8-34.5,49.3-41.9,49.5c-7.4,0.2-8.9,7.9-16,7.8s-20.2,7-20.2,7l10-79.2c0,0,4-27.4,9-34.1
				c5-6.7,24.6-12.7,24.6-12.7S81.9,86,138.8,93.8c55.3,7.7,63.3-3.3,68.8-3.4C208.2,90.3,208.8,90.5,209.5,90.9z"/>
		</g>
	</g>
	<g>
		<path class="st1" d="M103.2,201.7c-4.6-1.6-9.4-3.3-14.2-5c5,1,9.9,1.9,14.8,3.1c2.5,0.5,4.9,1.2,7.4,1.7s4.9,1.2,7.3,1.8l0.7,0.2
			l0.2,0.7c0.7,2.2,1.5,4.5,2.1,6.8l2.1,6.8l-0.2-0.4c1.2,1.8,2.6,3.4,4.2,4.6c1.6,1.3,3.5,2,5.5,2.6s4.1,0.7,6.4,1.2
			c1.1,0.2,2.3,0.4,3.5,1.2c0.6,0.3,1.2,0.9,1.6,1.4c0.5,0.5,0.8,1.3,1,1.9v-0.1c0.7,1.8,1.4,3.5,2.1,5.3l2.1,5.3
			c1.3,3.6,2.7,7.1,3.9,10.8c-1.8-3.3-3.5-6.7-5.2-10.1l-2.5-5.1c-0.8-1.7-1.6-3.4-2.4-5.1v-0.1c-0.4-0.9-0.9-1.4-1.7-1.8
			c-0.8-0.3-1.8-0.5-2.8-0.7c-2.1-0.3-4.4-0.4-6.7-1s-4.5-1.5-6.5-3c-2-1.4-3.7-3.3-5-5.3l-0.1-0.2l-0.1-0.2l-2-6.8
			c-0.7-2.2-1.3-4.6-1.9-6.8l0.9,1c-2.4-0.7-4.8-1.4-7.3-2.2"/>
	</g>
</g>
<g id="Calque_2">
	<g id="XMLID_00000130638404052846200940000018428814313057434041_">
		<g>
			<path d="M207.5,83l-0.1,7.2c0,0-14.6,12.4-74.9,2.7C79,84.3,62.1,66.6,62.1,66.6l0.1-5.2c0,0,22.3-20.6,76.2-12.2
				C192.3,57.4,207.5,83,207.5,83z M185.2,88.6c9.6-1,15.2-2.3,15.2-2.3s-9.7-11.6-17.5-16.2c-23.2-13.6-66.3-18.4-92.3-13.9
				c-10.4,1.8-18.9,9.4-18.9,9.4s5.8,2.9,15.5,6.6C112,81.4,155.3,91.9,185.2,88.6z"/>
			<path class="st1" d="M200.4,86.3c0,0-5.7,1.3-15.2,2.3c-29.9,3.3-73.2-7.2-98.1-16.4c-9.7-3.6-15.5-6.6-15.5-6.6
				s8.5-7.6,18.9-9.4c26-4.6,69.1,0.3,92.3,13.9C190.7,74.7,200.4,86.3,200.4,86.3z"/>
		</g>
		<g>
			<path class="st2" d="M71.6,65.6c0,0,5.8,2.9,15.5,6.6c24.9,9.2,68.2,19.7,98.1,16.4c9.6-1,15.2-2.3,15.2-2.3s-9.7-11.6-17.5-16.2
				c-23.2-13.6-66.3-18.4-92.3-13.9C80.1,58,71.6,65.6,71.6,65.6z"/>
			<path class="st2" d="M62.1,66.6l0.1-5.2c0,0,22.3-20.6,76.2-12.2c53.9,8.3,69.1,33.9,69.1,33.9l-0.1,7.2c0,0-14.6,12.4-74.9,2.7
				C79,84.3,62.1,66.6,62.1,66.6z"/>
		</g>
	</g>
</g>
<g>
	<g>
		<path class="st1" d="M73.3,184.1"/>
	</g>
	<g>
		<path class="st1" d="M81,174.8"/>
	</g>
</g>
</svg>
