<?xml version="1.0" encoding="utf-8"?>
<!-- Generator: Adobe Illustrator 25.4.1, SVG Export Plug-In . SVG Version: 6.00 Build 0)  -->
<svg version="1.1" id="Calque_1" xmlns="http://www.w3.org/2000/svg" xmlns:xlink="http://www.w3.org/1999/xlink" x="0px" y="0px"
	 viewBox="0 0 262.2 352.5" style="enable-background:new 0 0 262.2 352.5;" xml:space="preserve">
<style type="text/css">
	.st0{fill:#F07C63;}
	.st1{fill:#1F294C;}
	.st2{fill:#FFFFFF;}
	.st3{fill:none;stroke:#1F294C;stroke-miterlimit:10;}
</style>
<g id="Calque_2_00000124124846022605102830000013654814718432442011_">
	<path class="st0" d="M190.7,314.1c0,0-148.4,47.4-147.1,34.1C49.4,237-72.2,107.4,71.3,60.9c0,0,125.2-41.2,128.2-24.6
		c12.2,65.7,58.5,176.5,58.5,176.5C273.1,258.1,256.5,291.7,190.7,314.1z"/>
</g>
<g id="Calque_1_00000176019301019863276900000014172236511013697172_">
	<g id="XMLID_00000121262824171371487610000017453813604329006254_">
		<g>
			<path class="st1" d="M132.8,154l6.7,12.5c0,0,15.3,12.8,16.9,15.8c3.2,6,9.5,25.2,15.5,32.7s30.7,11.5,31.5,20.2
				c0.6,8,12.4,17.4,14.5,19.1c-2.9,31.6-11,83.1-103.9,70.3c-99.7-13.7-97.5-74.2-97.5-74.2l3.2-25.2c0,0,13.1-7,20.2-7
				c7.1,0.1,8.6-7.6,16-7.8s26.5-47.7,41.9-49.5"/>
			<path class="st2" d="M210.5,123.2c25.3,13.8,21.3,31.2,21.3,31.2s-8.3,60.7-12.3,85c-0.7,3.9-1,8.9-1.5,14.7
				c-2.1-1.6-13.9-11-14.6-19c-0.8-8.7-25.5-12.8-31.5-20.2s-12.3-26.8-15.5-32.7c-1.6-3-16.9-15.8-16.9-15.8l-6.7-6.1
				c-1.6-2.9-24.7-0.9-35,0.3c-15.4,1.8-34.5,49.3-41.9,49.5s-8.9,7.9-16,7.8c-7.1-0.1-20.2,7-20.2,7l10-79.2c0,0,4-27.4,9-34.1
				c5-6.7,24.6-12.7,24.6-12.7s19.6,19.3,76.5,27.2c55.3,7.7,63.3-3.3,68.8-3.4C209.2,122.7,209.8,122.9,210.5,123.2z"/>
		</g>
	</g>
	<g>
		<path class="st2" d="M104.2,234.1c-4.6-1.6-9.4-3.3-14.2-5c5,1,9.9,1.9,14.8,3.1c2.5,0.5,4.9,1.2,7.4,1.7s4.9,1.2,7.3,1.8l0.7,0.2
			l0.2,0.7c0.7,2.2,1.5,4.5,2.1,6.8l2.1,6.8l-0.2-0.4c1.2,1.8,2.6,3.4,4.2,4.6c1.6,1.3,3.5,2,5.5,2.6s4.1,0.7,6.4,1.2
			c1.1,0.2,2.3,0.4,3.5,1.2c0.6,0.3,1.2,0.9,1.6,1.4c0.5,0.5,0.8,1.3,1,1.9v-0.1c0.7,1.8,1.4,3.5,2.1,5.3l2.1,5.3
			c1.3,3.6,2.7,7.1,3.9,10.8c-1.8-3.3-3.5-6.7-5.2-10.1l-2.5-5.1c-0.8-1.7-1.6-3.4-2.4-5.1v-0.1c-0.4-0.9-0.9-1.4-1.7-1.8
			c-0.8-0.3-1.8-0.5-2.8-0.7c-2.1-0.3-4.4-0.4-6.7-1s-4.5-1.5-6.5-3c-2-1.4-3.7-3.3-5-5.3l-0.1-0.2l-0.1-0.2l-2-6.8
			c-0.7-2.2-1.3-4.6-1.9-6.8l0.9,1c-2.4-0.7-4.8-1.4-7.3-2.2"/>
	</g>
</g>
<g id="Calque_2">
	<g id="XMLID_00000130638404052846200940000018428814313057434041_">
		<g>
			<path class="st1" d="M208.5,115.4l-0.1,7.2c0,0-14.6,12.4-74.9,2.7C80,116.7,63.1,99,63.1,99l0.1-5.2c0,0,22.3-20.6,76.2-12.2
				C193.3,89.8,208.5,115.4,208.5,115.4z M186.2,121c9.6-1,15.2-2.3,15.2-2.3s-9.7-11.6-17.5-16.2C160.7,88.9,117.6,84,91.6,88.6
				C81.1,90.4,72.6,98,72.6,98s5.8,2.9,15.5,6.6C113,113.8,156.3,124.3,186.2,121z"/>
			<path class="st2" d="M201.4,118.7c0,0-5.7,1.3-15.2,2.3c-29.9,3.3-73.2-7.2-98.1-16.4C78.4,101,72.6,98,72.6,98s8.5-7.6,18.9-9.4
				c26-4.6,69.1,0.3,92.3,13.9C191.7,107.1,201.4,118.7,201.4,118.7z"/>
		</g>
		<g>
			<path class="st3" d="M72.6,98c0,0,5.8,2.9,15.5,6.6c24.9,9.2,68.2,19.7,98.1,16.4c9.6-1,15.2-2.3,15.2-2.3s-9.7-11.6-17.5-16.2
				C160.7,88.9,117.6,84,91.6,88.6C81.1,90.4,72.6,98,72.6,98z"/>
			<path class="st3" d="M63.1,99l0.1-5.2c0,0,22.3-20.6,76.2-12.2c53.9,8.3,69.1,33.9,69.1,33.9l-0.1,7.2c0,0-14.6,12.4-74.9,2.7
				C80,116.7,63.1,99,63.1,99z"/>
		</g>
	</g>
</g>
<g>
	<g>
		<path class="st2" d="M74.3,216.5"/>
	</g>
	<g>
		<path class="st2" d="M82,207.2"/>
	</g>
</g>
</svg>
